<?xml version="1.0" encoding="UTF-8"?>
<svg width="300px" height="300px" viewBox="0 0 300 300" version="1.1" xmlns="http://www.w3.org/2000/svg" xmlns:xlink="http://www.w3.org/1999/xlink">
    <!-- Generator: Sketch 51.2 (57519) - http://www.bohemiancoding.com/sketch -->
    <title>icon_twitter</title>
    <desc>Created with Sketch.</desc>
    <defs></defs>
    <g id="Page-1" stroke="none" stroke-width="1" fill="none" fill-rule="evenodd">
        <g id="twitter">
            <rect id="Background" fill="#666666" fill-rule="nonzero" x="0" y="0" width="300" height="300" rx="24"></rect>
            <path d="M57.8670306,80.9957642 C84.9219713,110.895183 115.078412,125.844892 148.336353,125.844892 C145.525813,90.2220579 165.54171,80.9957642 173.926816,75.4324684 C190.217148,66.9821228 219.697276,75.4324684 223.763955,86.7180457 C223.763955,86.7180457 226.367003,88.1886223 251.953359,75.4324684 C246.546999,91.0347718 231.550321,99.9844825 233.285629,99.3402108 C235.757213,98.4225805 243.662003,96.2355063 257,92.7789884 C252.29026,100.288588 245.15729,107.87852 235.601091,115.548784 C237.348537,143.077399 227.134982,190.074449 182.277768,223.477081 C108.920505,268.390096 45.2651475,228.275802 45,226.288168 C74.0877757,226.288168 95.3573658,220.067798 108.80877,207.627059 C87.0947343,204.601638 73.6105472,194.437663 68.356209,177.135132 C87.261018,177.759048 89.7690175,177.759048 87.261018,177.135132 C45,160.784531 50.3867533,134.461358 51.3849916,132.769215 C62.5343699,139.66421 71.3770394,138.050643 71.3770394,138.050643 C52.0884933,123.049404 47.5851571,104.031111 57.8670306,80.9957642 Z" fill="#FFFFFF"></path>
        </g>
    </g>
</svg>