<?xml version="1.0" encoding="UTF-8"?>
<svg width="300px" height="300px" viewBox="0 0 300 300" version="1.1" xmlns="http://www.w3.org/2000/svg" xmlns:xlink="http://www.w3.org/1999/xlink">
    <!-- Generator: Sketch 51.2 (57519) - http://www.bohemiancoding.com/sketch -->
    <title>icon_twitter</title>
    <desc>Created with Sketch.</desc>
    <defs></defs>
    <g id="Page-1" stroke="none" stroke-width="1" fill="none" fill-rule="evenodd">
        <g id="twitter" fill="#FFFFFF">
            <path d="M68.2889986,81.8925101 C92.0258805,108.125019 118.48389,121.241273 147.663027,121.241273 C145.197176,89.9872772 162.758293,81.8925101 170.115037,77.0115053 C184.407498,69.5975228 210.272138,77.0115053 213.840074,86.9130024 C213.840074,86.9130024 216.12388,88.2032253 238.572287,77.0115053 C233.82897,90.7003186 220.671508,98.5524233 222.193996,97.9871661 C224.36246,97.1820753 231.297795,95.2632273 243,92.2306219 C238.867869,98.8192327 232.609698,105.478324 224.225485,112.207895 C225.758622,136.360359 216.797673,177.59362 177.441816,206.899703 C113.081198,246.304519 57.2326294,211.109902 57,209.366034 C82.520407,209.366034 101.181462,203.90854 112.983166,192.993552 C93.9321725,190.339173 82.1017065,181.421723 77.4917682,166.241201 C94.078063,166.788599 96.2784776,166.788599 94.078063,166.241201 C57,151.895862 61.7261138,128.801003 62.6019266,127.316387 C72.3839283,133.36577 80.1421194,131.950093 80.1421194,131.950093 C63.2191498,118.788628 59.2681095,102.102767 68.2889986,81.8925101 Z"></path>
        </g>
    </g>
</svg>